<?xml version="1.0" encoding="utf-8"?><svg width="auto" height="2220" style="overflow:visible " version="1.1" xmlns="http://www.w3.org/2000/svg"><rect x="20" y="20" width="200" height="40" style="fill:white;stroke:black;stroke-width:1" /><text x="30" y="30" font-size="10" style="fill:blue">xs:schema</text><text x="30" y="40" font-size="8" style="fill:black">xmlns: http://tempuri.org/recetas</text><text x="30" y="50" font-size="8" style="fill:black">elementFormDefault: qualified</text><text x="30" y="60" font-size="8" style="fill:black">targetNamespace: http://tempuri.org/recetas</text><text x="30" y="70" font-size="8" style="fill:black">xmlns:xs: http://www.w3.org/2001/XMLSchema</text><rect x="240" y="20" width="200" height="40" style="fill:white;stroke:black;stroke-width:1" /><text x="250" y="30" font-size="10" style="fill:blue">xs:element</text><path d="M220 40 C240 40 220 40 240 40" style="fill:transparent;stroke:black" /><text x="250" y="40" font-size="8" style="fill:black">name: recetas</text><rect x="460" y="20" width="200" height="40" style="fill:white;stroke:black;stroke-width:1" /><text x="470" y="30" font-size="10" style="fill:blue">xs:complexType</text><path d="M440 40 C460 40 440 40 460 40" style="fill:transparent;stroke:black" /><rect x="680" y="20" width="200" height="40" style="fill:white;stroke:black;stroke-width:1" /><text x="690" y="30" font-size="10" style="fill:blue">xs:sequence</text><path d="M660 40 C680 40 660 40 680 40" style="fill:transparent;stroke:black" /><rect x="900" y="20" width="200" height="40" style="fill:white;stroke:black;stroke-width:1" /><text x="910" y="30" font-size="10" style="fill:blue">xs:element</text><path d="M880 40 C900 40 880 40 900 40" style="fill:transparent;stroke:black" /><text x="910" y="40" font-size="8" style="fill:black">minOccurs: 1</text><text x="910" y="50" font-size="8" style="fill:black">maxOccurs: unbounded</text><text x="910" y="60" font-size="8" style="fill:black">ref: receta</text><rect x="240" y="220" width="200" height="40" style="fill:white;stroke:black;stroke-width:1" /><text x="250" y="230" font-size="10" style="fill:blue">xs:element</text><path d="M220 40 C240 40 220 240 240 240" style="fill:transparent;stroke:black" /><text x="250" y="240" font-size="8" style="fill:black">name: receta</text><rect x="460" y="220" width="200" height="40" style="fill:white;stroke:black;stroke-width:1" /><text x="470" y="230" font-size="10" style="fill:blue">xs:complexType</text><path d="M440 240 C460 240 440 240 460 240" style="fill:transparent;stroke:black" /><rect x="680" y="220" width="200" height="40" style="fill:white;stroke:black;stroke-width:1" /><text x="690" y="230" font-size="10" style="fill:blue">xs:sequence</text><path d="M660 240 C680 240 660 240 680 240" style="fill:transparent;stroke:black" /><rect x="900" y="220" width="200" height="40" style="fill:white;stroke:black;stroke-width:1" /><text x="910" y="230" font-size="10" style="fill:blue">xs:element</text><path d="M880 240 C900 240 880 240 900 240" style="fill:transparent;stroke:black" /><text x="910" y="240" font-size="8" style="fill:black">ref: nombre</text><rect x="900" y="270" width="200" height="40" style="fill:white;stroke:black;stroke-width:1" /><text x="910" y="280" font-size="10" style="fill:blue">xs:element</text><path d="M880 240 C900 240 880 290 900 290" style="fill:transparent;stroke:black" /><text x="910" y="290" font-size="8" style="fill:black">ref: tipo</text><rect x="900" y="320" width="200" height="40" style="fill:white;stroke:black;stroke-width:1" /><text x="910" y="330" font-size="10" style="fill:blue">xs:element</text><path d="M880 240 C900 240 880 340 900 340" style="fill:transparent;stroke:black" /><text x="910" y="340" font-size="8" style="fill:black">ref: ingredientes</text><rect x="900" y="370" width="200" height="40" style="fill:white;stroke:black;stroke-width:1" /><text x="910" y="380" font-size="10" style="fill:blue">xs:element</text><path d="M880 240 C900 240 880 390 900 390" style="fill:transparent;stroke:black" /><text x="910" y="390" font-size="8" style="fill:black">minOccurs: 0</text><text x="910" y="400" font-size="8" style="fill:black">maxOccurs: 1</text><text x="910" y="410" font-size="8" style="fill:black">ref: calorias</text><rect x="900" y="420" width="200" height="40" style="fill:white;stroke:black;stroke-width:1" /><text x="910" y="430" font-size="10" style="fill:blue">xs:element</text><path d="M880 240 C900 240 880 440 900 440" style="fill:transparent;stroke:black" /><text x="910" y="440" font-size="8" style="fill:black">ref: pasos</text><rect x="900" y="470" width="200" height="40" style="fill:white;stroke:black;stroke-width:1" /><text x="910" y="480" font-size="10" style="fill:blue">xs:element</text><path d="M880 240 C900 240 880 490 900 490" style="fill:transparent;stroke:black" /><text x="910" y="490" font-size="8" style="fill:black">ref: tiempo</text><rect x="900" y="520" width="200" height="40" style="fill:white;stroke:black;stroke-width:1" /><text x="910" y="530" font-size="10" style="fill:blue">xs:element</text><path d="M880 240 C900 240 880 540 900 540" style="fill:transparent;stroke:black" /><text x="910" y="540" font-size="8" style="fill:black">ref: dificultad</text><rect x="900" y="570" width="200" height="40" style="fill:white;stroke:black;stroke-width:1" /><text x="910" y="580" font-size="10" style="fill:blue">xs:element</text><path d="M880 240 C900 240 880 590 900 590" style="fill:transparent;stroke:black" /><text x="910" y="590" font-size="8" style="fill:black">ref: elementosElabotación</text><rect x="900" y="620" width="200" height="40" style="fill:white;stroke:black;stroke-width:1" /><text x="910" y="630" font-size="10" style="fill:blue">xs:element</text><path d="M880 240 C900 240 880 640 900 640" style="fill:transparent;stroke:black" /><text x="910" y="640" font-size="8" style="fill:black">ref: origen</text><rect x="240" y="820" width="200" height="40" style="fill:white;stroke:black;stroke-width:1" /><text x="250" y="830" font-size="10" style="fill:blue">xs:element</text><path d="M220 40 C240 40 220 840 240 840" style="fill:transparent;stroke:black" /><text x="250" y="840" font-size="8" style="fill:black">name: nombre</text><text x="250" y="850" font-size="8" style="fill:black">type: xs:string</text><rect x="240" y="870" width="200" height="40" style="fill:white;stroke:black;stroke-width:1" /><text x="250" y="880" font-size="10" style="fill:blue">xs:element</text><path d="M220 40 C240 40 220 890 240 890" style="fill:transparent;stroke:black" /><text x="250" y="890" font-size="8" style="fill:black">name: tipo</text><text x="250" y="900" font-size="8" style="fill:black">type: xs:string</text><rect x="240" y="920" width="200" height="40" style="fill:white;stroke:black;stroke-width:1" /><text x="250" y="930" font-size="10" style="fill:blue">xs:element</text><path d="M220 40 C240 40 220 940 240 940" style="fill:transparent;stroke:black" /><text x="250" y="940" font-size="8" style="fill:black">name: ingredientes</text><rect x="460" y="920" width="200" height="40" style="fill:white;stroke:black;stroke-width:1" /><text x="470" y="930" font-size="10" style="fill:blue">xs:complexType</text><path d="M440 940 C460 940 440 940 460 940" style="fill:transparent;stroke:black" /><rect x="680" y="920" width="200" height="40" style="fill:white;stroke:black;stroke-width:1" /><text x="690" y="930" font-size="10" style="fill:blue">xs:sequence</text><path d="M660 940 C680 940 660 940 680 940" style="fill:transparent;stroke:black" /><rect x="900" y="920" width="200" height="40" style="fill:white;stroke:black;stroke-width:1" /><text x="910" y="930" font-size="10" style="fill:blue">xs:element</text><path d="M880 940 C900 940 880 940 900 940" style="fill:transparent;stroke:black" /><text x="910" y="940" font-size="8" style="fill:black">minOccurs: 1</text><text x="910" y="950" font-size="8" style="fill:black">maxOccurs: unbounded</text><text x="910" y="960" font-size="8" style="fill:black">ref: ingrediente</text><rect x="240" y="1120" width="200" height="40" style="fill:white;stroke:black;stroke-width:1" /><text x="250" y="1130" font-size="10" style="fill:blue">xs:element</text><path d="M220 40 C240 40 220 1140 240 1140" style="fill:transparent;stroke:black" /><text x="250" y="1140" font-size="8" style="fill:black">name: ingrediente</text><rect x="460" y="1120" width="200" height="40" style="fill:white;stroke:black;stroke-width:1" /><text x="470" y="1130" font-size="10" style="fill:blue">xs:complexType</text><path d="M440 1140 C460 1140 440 1140 460 1140" style="fill:transparent;stroke:black" /><rect x="680" y="1120" width="200" height="40" style="fill:white;stroke:black;stroke-width:1" /><text x="690" y="1130" font-size="10" style="fill:blue">xs:sequence</text><path d="M660 1140 C680 1140 660 1140 680 1140" style="fill:transparent;stroke:black" /><rect x="900" y="1120" width="200" height="40" style="fill:white;stroke:black;stroke-width:1" /><text x="910" y="1130" font-size="10" style="fill:blue">xs:element</text><path d="M880 1140 C900 1140 880 1140 900 1140" style="fill:transparent;stroke:black" /><text x="910" y="1140" font-size="8" style="fill:black">ref: nombre</text><rect x="900" y="1170" width="200" height="40" style="fill:white;stroke:black;stroke-width:1" /><text x="910" y="1180" font-size="10" style="fill:blue">xs:element</text><path d="M880 1140 C900 1140 880 1190 900 1190" style="fill:transparent;stroke:black" /><text x="910" y="1190" font-size="8" style="fill:black">ref: cantidad</text><rect x="240" y="1370" width="200" height="40" style="fill:white;stroke:black;stroke-width:1" /><text x="250" y="1380" font-size="10" style="fill:blue">xs:element</text><path d="M220 40 C240 40 220 1390 240 1390" style="fill:transparent;stroke:black" /><text x="250" y="1390" font-size="8" style="fill:black">name: nombre</text><text x="250" y="1400" font-size="8" style="fill:black">type: xs:string</text><rect x="240" y="1420" width="200" height="40" style="fill:white;stroke:black;stroke-width:1" /><text x="250" y="1430" font-size="10" style="fill:blue">xs:element</text><path d="M220 40 C240 40 220 1440 240 1440" style="fill:transparent;stroke:black" /><text x="250" y="1440" font-size="8" style="fill:black">name: cantidad</text><text x="250" y="1450" font-size="8" style="fill:black">type: xs:string</text><rect x="240" y="1470" width="200" height="40" style="fill:white;stroke:black;stroke-width:1" /><text x="250" y="1480" font-size="10" style="fill:blue">xs:element</text><path d="M220 40 C240 40 220 1490 240 1490" style="fill:transparent;stroke:black" /><text x="250" y="1490" font-size="8" style="fill:black">name: calorias</text><text x="250" y="1500" font-size="8" style="fill:black">type: xs:string</text><rect x="240" y="1520" width="200" height="40" style="fill:white;stroke:black;stroke-width:1" /><text x="250" y="1530" font-size="10" style="fill:blue">xs:element</text><path d="M220 40 C240 40 220 1540 240 1540" style="fill:transparent;stroke:black" /><text x="250" y="1540" font-size="8" style="fill:black">name: pasos</text><rect x="460" y="1520" width="200" height="40" style="fill:white;stroke:black;stroke-width:1" /><text x="470" y="1530" font-size="10" style="fill:blue">xs:complexType</text><path d="M440 1540 C460 1540 440 1540 460 1540" style="fill:transparent;stroke:black" /><rect x="680" y="1520" width="200" height="40" style="fill:white;stroke:black;stroke-width:1" /><text x="690" y="1530" font-size="10" style="fill:blue">xs:sequence</text><path d="M660 1540 C680 1540 660 1540 680 1540" style="fill:transparent;stroke:black" /><rect x="900" y="1520" width="200" height="40" style="fill:white;stroke:black;stroke-width:1" /><text x="910" y="1530" font-size="10" style="fill:blue">xs:element</text><path d="M880 1540 C900 1540 880 1540 900 1540" style="fill:transparent;stroke:black" /><text x="910" y="1540" font-size="8" style="fill:black">minOccurs: 1</text><text x="910" y="1550" font-size="8" style="fill:black">maxOccurs: unbounded</text><text x="910" y="1560" font-size="8" style="fill:black">ref: paso</text><rect x="240" y="1720" width="200" height="40" style="fill:white;stroke:black;stroke-width:1" /><text x="250" y="1730" font-size="10" style="fill:blue">xs:element</text><path d="M220 40 C240 40 220 1740 240 1740" style="fill:transparent;stroke:black" /><text x="250" y="1740" font-size="8" style="fill:black">name: paso</text><text x="250" y="1750" font-size="8" style="fill:black">type: xs:string</text><rect x="240" y="1770" width="200" height="40" style="fill:white;stroke:black;stroke-width:1" /><text x="250" y="1780" font-size="10" style="fill:blue">xs:element</text><path d="M220 40 C240 40 220 1790 240 1790" style="fill:transparent;stroke:black" /><text x="250" y="1790" font-size="8" style="fill:black">name: tiempo</text><text x="250" y="1800" font-size="8" style="fill:black">type: xs:string</text><rect x="240" y="1820" width="200" height="40" style="fill:white;stroke:black;stroke-width:1" /><text x="250" y="1830" font-size="10" style="fill:blue">xs:element</text><path d="M220 40 C240 40 220 1840 240 1840" style="fill:transparent;stroke:black" /><text x="250" y="1840" font-size="8" style="fill:black">name: dificultad</text><text x="250" y="1850" font-size="8" style="fill:black">type: xs:string</text><rect x="240" y="1870" width="200" height="40" style="fill:white;stroke:black;stroke-width:1" /><text x="250" y="1880" font-size="10" style="fill:blue">xs:element</text><path d="M220 40 C240 40 220 1890 240 1890" style="fill:transparent;stroke:black" /><text x="250" y="1890" font-size="8" style="fill:black">name: elementosElabotación</text><rect x="460" y="1870" width="200" height="40" style="fill:white;stroke:black;stroke-width:1" /><text x="470" y="1880" font-size="10" style="fill:blue">xs:complexType</text><path d="M440 1890 C460 1890 440 1890 460 1890" style="fill:transparent;stroke:black" /><rect x="680" y="1870" width="200" height="40" style="fill:white;stroke:black;stroke-width:1" /><text x="690" y="1880" font-size="10" style="fill:blue">xs:sequence</text><path d="M660 1890 C680 1890 660 1890 680 1890" style="fill:transparent;stroke:black" /><rect x="900" y="1870" width="200" height="40" style="fill:white;stroke:black;stroke-width:1" /><text x="910" y="1880" font-size="10" style="fill:blue">xs:element</text><path d="M880 1890 C900 1890 880 1890 900 1890" style="fill:transparent;stroke:black" /><text x="910" y="1890" font-size="8" style="fill:black">minOccurs: 1</text><text x="910" y="1900" font-size="8" style="fill:black">maxOccurs: unbounded</text><text x="910" y="1910" font-size="8" style="fill:black">ref: elementoElabotación</text><rect x="240" y="2070" width="200" height="40" style="fill:white;stroke:black;stroke-width:1" /><text x="250" y="2080" font-size="10" style="fill:blue">xs:element</text><path d="M220 40 C240 40 220 2090 240 2090" style="fill:transparent;stroke:black" /><text x="250" y="2090" font-size="8" style="fill:black">name: elementoElabotación</text><text x="250" y="2100" font-size="8" style="fill:black">type: xs:string</text><rect x="240" y="2120" width="200" height="40" style="fill:white;stroke:black;stroke-width:1" /><text x="250" y="2130" font-size="10" style="fill:blue">xs:element</text><path d="M220 40 C240 40 220 2140 240 2140" style="fill:transparent;stroke:black" /><text x="250" y="2140" font-size="8" style="fill:black">name: origen</text><text x="250" y="2150" font-size="8" style="fill:black">type: xs:string</text></svg>