<?xml version="1.0" encoding="utf-8"?><svg width="auto" height="2220" style="overflow:visible " version="1.1" xmlns="http://www.w3.org/2000/svg"><rect x="20" y="20" width="200" height="40" style="fill:white;stroke:black;stroke-width:1" /><text x="30" y="30" font-size="10" style="fill:blue">xsl:stylesheet</text><text x="30" y="40" font-size="8" style="fill:black">version: 1.0</text><text x="30" y="50" font-size="8" style="fill:black">xmlns:xsl: http://www.w3.org/1999/XSL/Transform</text><rect x="240" y="20" width="200" height="40" style="fill:white;stroke:black;stroke-width:1" /><text x="250" y="30" font-size="10" style="fill:blue">xsl:output</text><path d="M220 40 C240 40 220 40 240 40" style="fill:transparent;stroke:black" /><text x="250" y="40" font-size="8" style="fill:black">method: html</text><text x="250" y="50" font-size="8" style="fill:black">version: 1.0</text><text x="250" y="60" font-size="8" style="fill:black">encoding: UTF-8</text><text x="250" y="70" font-size="8" style="fill:black">indent: yes</text><rect x="240" y="70" width="200" height="40" style="fill:white;stroke:black;stroke-width:1" /><text x="250" y="80" font-size="10" style="fill:blue">xsl:template</text><path d="M220 40 C240 40 220 90 240 90" style="fill:transparent;stroke:black" /><text x="250" y="90" font-size="8" style="fill:black">match: /</text><rect x="460" y="70" width="200" height="40" style="fill:white;stroke:black;stroke-width:1" /><text x="470" y="80" font-size="10" style="fill:blue">xsl:text</text><path d="M440 90 C460 90 440 90 460 90" style="fill:transparent;stroke:black" /><text x="470" y="90" font-size="8" style="fill:black">disable-output-escaping: yes</text><rect x="526" y="70" width="137" height="40" style="fill:green;stroke:black;stroke-width:1" /><text x="536" y="80" font-size="8" style="fill:white">&lt;!DOCTYPE html&gt;</text><rect x="460" y="120" width="200" height="40" style="fill:white;stroke:black;stroke-width:1" /><text x="470" y="130" font-size="10" style="fill:blue">html</text><path d="M440 90 C460 90 440 140 460 140" style="fill:transparent;stroke:black" /><text x="470" y="140" font-size="8" style="fill:black">lang: es</text><rect x="680" y="120" width="200" height="40" style="fill:white;stroke:black;stroke-width:1" /><text x="690" y="130" font-size="10" style="fill:blue">head</text><path d="M660 140 C680 140 660 140 680 140" style="fill:transparent;stroke:black" /><rect x="900" y="120" width="200" height="40" style="fill:white;stroke:black;stroke-width:1" /><text x="910" y="130" font-size="10" style="fill:blue">title</text><path d="M880 140 C900 140 880 140 900 140" style="fill:transparent;stroke:black" /><rect x="966" y="120" width="137" height="40" style="fill:green;stroke:black;stroke-width:1" /><text x="976" y="130" font-size="8" style="fill:white">Ejercicio 2: Recetas</text><rect x="900" y="170" width="200" height="40" style="fill:white;stroke:black;stroke-width:1" /><text x="910" y="180" font-size="10" style="fill:blue">link</text><path d="M880 140 C900 140 880 190 900 190" style="fill:transparent;stroke:black" /><text x="910" y="190" font-size="8" style="fill:black">rel: stylesheet</text><text x="910" y="200" font-size="8" style="fill:black">type: text/css</text><text x="910" y="210" font-size="8" style="fill:black">href: estilo.css</text><rect x="680" y="270" width="200" height="40" style="fill:white;stroke:black;stroke-width:1" /><text x="690" y="280" font-size="10" style="fill:blue">body</text><path d="M660 140 C680 140 660 290 680 290" style="fill:transparent;stroke:black" /><rect x="900" y="270" width="200" height="40" style="fill:white;stroke:black;stroke-width:1" /><text x="910" y="280" font-size="10" style="fill:blue">header</text><path d="M880 290 C900 290 880 290 900 290" style="fill:transparent;stroke:black" /><rect x="1120" y="270" width="200" height="40" style="fill:white;stroke:black;stroke-width:1" /><text x="1130" y="280" font-size="10" style="fill:blue">h1</text><path d="M1100 290 C1120 290 1100 290 1120 290" style="fill:transparent;stroke:black" /><rect x="1186" y="270" width="137" height="40" style="fill:green;stroke:black;stroke-width:1" /><text x="1196" y="280" font-size="8" style="fill:white">Recetas</text><rect x="900" y="370" width="200" height="40" style="fill:white;stroke:black;stroke-width:1" /><text x="910" y="380" font-size="10" style="fill:blue">xsl:for-each</text><path d="M880 290 C900 290 880 390 900 390" style="fill:transparent;stroke:black" /><text x="910" y="390" font-size="8" style="fill:black">select: recetas/receta</text><rect x="1120" y="370" width="200" height="40" style="fill:white;stroke:black;stroke-width:1" /><text x="1130" y="380" font-size="10" style="fill:blue">article</text><path d="M1100 390 C1120 390 1100 390 1120 390" style="fill:transparent;stroke:black" /><rect x="1340" y="370" width="200" height="40" style="fill:white;stroke:black;stroke-width:1" /><text x="1350" y="380" font-size="10" style="fill:blue">h2</text><path d="M1320 390 C1340 390 1320 390 1340 390" style="fill:transparent;stroke:black" /><rect x="1406" y="370" width="137" height="40" style="fill:green;stroke:black;stroke-width:1" /><text x="1416" y="380" font-size="8" style="fill:white">Receta: </text><rect x="1560" y="370" width="200" height="40" style="fill:white;stroke:black;stroke-width:1" /><text x="1570" y="380" font-size="10" style="fill:blue">xsl:value-of</text><path d="M1540 390 C1560 390 1540 390 1560 390" style="fill:transparent;stroke:black" /><text x="1570" y="390" font-size="8" style="fill:black">select: nombre</text><rect x="1340" y="470" width="200" height="40" style="fill:white;stroke:black;stroke-width:1" /><text x="1350" y="480" font-size="10" style="fill:blue">h3</text><path d="M1320 390 C1340 390 1320 490 1340 490" style="fill:transparent;stroke:black" /><rect x="1406" y="470" width="137" height="40" style="fill:green;stroke:black;stroke-width:1" /><text x="1416" y="480" font-size="8" style="fill:white">Tipo: </text><rect x="1560" y="470" width="200" height="40" style="fill:white;stroke:black;stroke-width:1" /><text x="1570" y="480" font-size="10" style="fill:blue">xsl:value-of</text><path d="M1540 490 C1560 490 1540 490 1560 490" style="fill:transparent;stroke:black" /><text x="1570" y="490" font-size="8" style="fill:black">select: tipo</text><rect x="1340" y="570" width="200" height="40" style="fill:white;stroke:black;stroke-width:1" /><text x="1350" y="580" font-size="10" style="fill:blue">h3</text><path d="M1320 390 C1340 390 1320 590 1340 590" style="fill:transparent;stroke:black" /><rect x="1406" y="570" width="137" height="40" style="fill:green;stroke:black;stroke-width:1" /><text x="1416" y="580" font-size="8" style="fill:white">Ingredientes: </text><rect x="1340" y="620" width="200" height="40" style="fill:white;stroke:black;stroke-width:1" /><text x="1350" y="630" font-size="10" style="fill:blue">ul</text><path d="M1320 390 C1340 390 1320 640 1340 640" style="fill:transparent;stroke:black" /><rect x="1560" y="620" width="200" height="40" style="fill:white;stroke:black;stroke-width:1" /><text x="1570" y="630" font-size="10" style="fill:blue">xsl:for-each</text><path d="M1540 640 C1560 640 1540 640 1560 640" style="fill:transparent;stroke:black" /><text x="1570" y="640" font-size="8" style="fill:black">select: ingredientes/ingrediente</text><rect x="1780" y="620" width="200" height="40" style="fill:white;stroke:black;stroke-width:1" /><text x="1790" y="630" font-size="10" style="fill:blue">li</text><path d="M1760 640 C1780 640 1760 640 1780 640" style="fill:transparent;stroke:black" /><rect x="2000" y="620" width="200" height="40" style="fill:white;stroke:black;stroke-width:1" /><text x="2010" y="630" font-size="10" style="fill:blue">xsl:value-of</text><path d="M1980 640 C2000 640 1980 640 2000 640" style="fill:transparent;stroke:black" /><text x="2010" y="640" font-size="8" style="fill:black">select: .</text><rect x="1340" y="820" width="200" height="40" style="fill:white;stroke:black;stroke-width:1" /><text x="1350" y="830" font-size="10" style="fill:blue">h3</text><path d="M1320 390 C1340 390 1320 840 1340 840" style="fill:transparent;stroke:black" /><rect x="1406" y="820" width="137" height="40" style="fill:green;stroke:black;stroke-width:1" /><text x="1416" y="830" font-size="8" style="fill:white">Calorias: </text><rect x="1340" y="870" width="200" height="40" style="fill:white;stroke:black;stroke-width:1" /><text x="1350" y="880" font-size="10" style="fill:blue">p</text><path d="M1320 390 C1340 390 1320 890 1340 890" style="fill:transparent;stroke:black" /><rect x="1560" y="870" width="200" height="40" style="fill:white;stroke:black;stroke-width:1" /><text x="1570" y="880" font-size="10" style="fill:blue">xsl:value-of</text><path d="M1540 890 C1560 890 1540 890 1560 890" style="fill:transparent;stroke:black" /><text x="1570" y="890" font-size="8" style="fill:black">select: calorias</text><rect x="1340" y="970" width="200" height="40" style="fill:white;stroke:black;stroke-width:1" /><text x="1350" y="980" font-size="10" style="fill:blue">h3</text><path d="M1320 390 C1340 390 1320 990 1340 990" style="fill:transparent;stroke:black" /><rect x="1406" y="970" width="137" height="40" style="fill:green;stroke:black;stroke-width:1" /><text x="1416" y="980" font-size="8" style="fill:white">Pasos: </text><rect x="1340" y="1020" width="200" height="40" style="fill:white;stroke:black;stroke-width:1" /><text x="1350" y="1030" font-size="10" style="fill:blue">ul</text><path d="M1320 390 C1340 390 1320 1040 1340 1040" style="fill:transparent;stroke:black" /><rect x="1560" y="1020" width="200" height="40" style="fill:white;stroke:black;stroke-width:1" /><text x="1570" y="1030" font-size="10" style="fill:blue">xsl:for-each</text><path d="M1540 1040 C1560 1040 1540 1040 1560 1040" style="fill:transparent;stroke:black" /><text x="1570" y="1040" font-size="8" style="fill:black">select: pasos/paso</text><rect x="1780" y="1020" width="200" height="40" style="fill:white;stroke:black;stroke-width:1" /><text x="1790" y="1030" font-size="10" style="fill:blue">li</text><path d="M1760 1040 C1780 1040 1760 1040 1780 1040" style="fill:transparent;stroke:black" /><rect x="2000" y="1020" width="200" height="40" style="fill:white;stroke:black;stroke-width:1" /><text x="2010" y="1030" font-size="10" style="fill:blue">xsl:value-of</text><path d="M1980 1040 C2000 1040 1980 1040 2000 1040" style="fill:transparent;stroke:black" /><text x="2010" y="1040" font-size="8" style="fill:black">select: .</text><rect x="1340" y="1220" width="200" height="40" style="fill:white;stroke:black;stroke-width:1" /><text x="1350" y="1230" font-size="10" style="fill:blue">h3</text><path d="M1320 390 C1340 390 1320 1240 1340 1240" style="fill:transparent;stroke:black" /><rect x="1406" y="1220" width="137" height="40" style="fill:green;stroke:black;stroke-width:1" /><text x="1416" y="1230" font-size="8" style="fill:white">Tiempo:</text><rect x="1340" y="1270" width="200" height="40" style="fill:white;stroke:black;stroke-width:1" /><text x="1350" y="1280" font-size="10" style="fill:blue">p</text><path d="M1320 390 C1340 390 1320 1290 1340 1290" style="fill:transparent;stroke:black" /><rect x="1560" y="1270" width="200" height="40" style="fill:white;stroke:black;stroke-width:1" /><text x="1570" y="1280" font-size="10" style="fill:blue">xsl:value-of</text><path d="M1540 1290 C1560 1290 1540 1290 1560 1290" style="fill:transparent;stroke:black" /><text x="1570" y="1290" font-size="8" style="fill:black">select: tiempo</text><rect x="1340" y="1370" width="200" height="40" style="fill:white;stroke:black;stroke-width:1" /><text x="1350" y="1380" font-size="10" style="fill:blue">h3</text><path d="M1320 390 C1340 390 1320 1390 1340 1390" style="fill:transparent;stroke:black" /><rect x="1406" y="1370" width="137" height="40" style="fill:green;stroke:black;stroke-width:1" /><text x="1416" y="1380" font-size="8" style="fill:white">Dificultad:</text><rect x="1340" y="1420" width="200" height="40" style="fill:white;stroke:black;stroke-width:1" /><text x="1350" y="1430" font-size="10" style="fill:blue">p</text><path d="M1320 390 C1340 390 1320 1440 1340 1440" style="fill:transparent;stroke:black" /><rect x="1560" y="1420" width="200" height="40" style="fill:white;stroke:black;stroke-width:1" /><text x="1570" y="1430" font-size="10" style="fill:blue">xsl:value-of</text><path d="M1540 1440 C1560 1440 1540 1440 1560 1440" style="fill:transparent;stroke:black" /><text x="1570" y="1440" font-size="8" style="fill:black">select: dificultad</text><rect x="1340" y="1520" width="200" height="40" style="fill:white;stroke:black;stroke-width:1" /><text x="1350" y="1530" font-size="10" style="fill:blue">h3</text><path d="M1320 390 C1340 390 1320 1540 1340 1540" style="fill:transparent;stroke:black" /><rect x="1406" y="1520" width="137" height="40" style="fill:green;stroke:black;stroke-width:1" /><text x="1416" y="1530" font-size="8" style="fill:white">Elementos para la elaboración:</text><rect x="1340" y="1570" width="200" height="40" style="fill:white;stroke:black;stroke-width:1" /><text x="1350" y="1580" font-size="10" style="fill:blue">ul</text><path d="M1320 390 C1340 390 1320 1590 1340 1590" style="fill:transparent;stroke:black" /><rect x="1560" y="1570" width="200" height="40" style="fill:white;stroke:black;stroke-width:1" /><text x="1570" y="1580" font-size="10" style="fill:blue">xsl:for-each</text><path d="M1540 1590 C1560 1590 1540 1590 1560 1590" style="fill:transparent;stroke:black" /><text x="1570" y="1590" font-size="8" style="fill:black">select: elementosElabotación/elementoElabotación</text><rect x="1780" y="1570" width="200" height="40" style="fill:white;stroke:black;stroke-width:1" /><text x="1790" y="1580" font-size="10" style="fill:blue">li</text><path d="M1760 1590 C1780 1590 1760 1590 1780 1590" style="fill:transparent;stroke:black" /><rect x="2000" y="1570" width="200" height="40" style="fill:white;stroke:black;stroke-width:1" /><text x="2010" y="1580" font-size="10" style="fill:blue">xsl:value-of</text><path d="M1980 1590 C2000 1590 1980 1590 2000 1590" style="fill:transparent;stroke:black" /><text x="2010" y="1590" font-size="8" style="fill:black">select: .</text><rect x="1340" y="1770" width="200" height="40" style="fill:white;stroke:black;stroke-width:1" /><text x="1350" y="1780" font-size="10" style="fill:blue">h3</text><path d="M1320 390 C1340 390 1320 1790 1340 1790" style="fill:transparent;stroke:black" /><rect x="1406" y="1770" width="137" height="40" style="fill:green;stroke:black;stroke-width:1" /><text x="1416" y="1780" font-size="8" style="fill:white">Origen: </text><rect x="1340" y="1820" width="200" height="40" style="fill:white;stroke:black;stroke-width:1" /><text x="1350" y="1830" font-size="10" style="fill:blue">p</text><path d="M1320 390 C1340 390 1320 1840 1340 1840" style="fill:transparent;stroke:black" /><rect x="1560" y="1820" width="200" height="40" style="fill:white;stroke:black;stroke-width:1" /><text x="1570" y="1830" font-size="10" style="fill:blue">xsl:value-of</text><path d="M1540 1840 C1560 1840 1540 1840 1560 1840" style="fill:transparent;stroke:black" /><text x="1570" y="1840" font-size="8" style="fill:black">select: origen</text></svg>